<?xml version="1.0" standalone="no"?>
<!DOCTYPE svg PUBLIC "-//W3C//DTD SVG 20010904//EN"
 "http://www.w3.org/TR/2001/REC-SVG-20010904/DTD/svg10.dtd">
<svg version="1.0" xmlns="http://www.w3.org/2000/svg"
 width="116.000000pt" height="74.000000pt" viewBox="0 0 116.000000 74.000000"
 preserveAspectRatio="xMidYMid meet">
<metadata>
Created by potrace 1.12, written by Peter Selinger 2001-2015
</metadata>
<g transform="translate(0.000000,74.000000) scale(0.100000,-0.100000)"
fill="#000000" stroke="none">
<path d="M0 370 l0 -370 580 0 580 0 0 370 0 370 -580 0 -580 0 0 -370z m596
219 c7 -5 22 -6 35 -1 13 4 56 7 94 7 l70 0 3 -158 3 -157 97 -1 c53 -1 104
-3 112 -4 8 -1 23 -3 33 -4 14 -1 17 -12 17 -76 l0 -75 -222 2 -222 3 -8 35
c-10 51 -13 165 -4 240 7 63 7 64 -9 37 -14 -24 -20 -27 -47 -22 -24 6 -29 4
-23 -6 5 -8 -1 -6 -12 4 -14 12 -23 15 -28 7 -3 -5 -11 -7 -17 -4 -7 4 -8 -2
-2 -17 11 -35 11 -109 0 -109 -6 0 -5 -5 2 -12 14 -14 16 -32 3 -24 -5 4 -7
-8 -4 -25 3 -19 -2 -48 -13 -71 l-17 -39 -91 3 -91 3 -1 135 c-1 74 -2 145 -3
158 -1 21 -5 22 -76 22 l-75 0 0 73 c0 41 3 77 7 81 11 10 476 5 489 -5z"/>
<path d="M156 529 c-3 -18 -3 -36 1 -40 5 -4 32 -9 60 -12 32 -3 64 -14 79
-26 15 -12 23 -21 19 -21 -4 0 -2 -7 5 -15 9 -10 9 -15 1 -15 -7 0 -9 -17 -6
-50 3 -32 1 -50 -6 -50 -5 0 -7 -5 -4 -11 10 -16 12 -79 2 -79 -4 0 -3 -9 3
-20 9 -16 20 -20 55 -18 41 1 45 4 46 27 2 113 10 248 14 259 3 8 28 12 75 12
67 0 70 1 70 24 0 43 -10 57 -31 45 -10 -5 -19 -6 -19 -1 0 11 -31 12 -45 2
-5 -4 -19 -5 -30 -3 -31 7 -61 10 -176 18 l-106 7 -7 -33z"/>
<path d="M651 527 c-13 -13 -14 -311 -1 -342 5 -11 9 -16 9 -11 1 5 9 2 18 -5
12 -10 15 -11 9 -1 -6 9 -2 11 16 8 96 -21 278 -22 290 -3 4 7 8 24 8 40 l0
27 -99 0 c-65 0 -110 5 -132 15 -19 8 -29 14 -24 15 6 0 3 5 -5 10 -11 7 -11
10 -2 10 10 0 10 5 2 20 -8 15 -8 20 1 20 8 0 8 4 -1 15 -9 11 -9 15 -1 15 8
0 9 5 2 17 -6 11 -6 24 1 36 7 15 7 18 -2 12 -9 -5 -9 -3 -2 11 5 11 9 37 8
58 -1 39 -2 39 -42 42 -23 1 -47 -3 -53 -9z"/>
</g>
</svg>
